<?xml version="1.0" encoding="UTF-8" standalone="no"?>
<!-- Created with Inkscape (http://www.inkscape.org/) -->

<svg
   xmlns:dc="http://purl.org/dc/elements/1.1/"
   xmlns:cc="http://creativecommons.org/ns#"
   xmlns:rdf="http://www.w3.org/1999/02/22-rdf-syntax-ns#"
   xmlns:svg="http://www.w3.org/2000/svg"
   xmlns="http://www.w3.org/2000/svg"
   xmlns:sodipodi="http://sodipodi.sourceforge.net/DTD/sodipodi-0.dtd"
   xmlns:inkscape="http://www.inkscape.org/namespaces/inkscape"
   width="239.09016mm"
   height="43.254448mm"
   viewBox="0 0 239.09016 43.254448"
   version="1.1"
   id="svg1010"
   inkscape:version="0.92.3 (2405546, 2018-03-11)"
   sodipodi:docname="logo_gera_sena_final.svg">
  <defs
     id="defs1004" />
  <sodipodi:namedview
     id="base"
     pagecolor="#ffffff"
     bordercolor="#666666"
     borderopacity="1.0"
     inkscape:pageopacity="0.0"
     inkscape:pageshadow="2"
     inkscape:zoom="0.35"
     inkscape:cx="504.68107"
     inkscape:cy="-301.11646"
     inkscape:document-units="mm"
     inkscape:current-layer="layer1"
     showgrid="false"
     inkscape:window-width="1920"
     inkscape:window-height="1137"
     inkscape:window-x="1072"
     inkscape:window-y="239"
     inkscape:window-maximized="1" />
  <metadata
     id="metadata1007">
    <rdf:RDF>
      <cc:Work
         rdf:about="">
        <dc:format>image/svg+xml</dc:format>
        <dc:type
           rdf:resource="http://purl.org/dc/dcmitype/StillImage" />
        <dc:title></dc:title>
      </cc:Work>
    </rdf:RDF>
  </metadata>
  <g
     inkscape:label="Layer 1"
     inkscape:groupmode="layer"
     id="layer1"
     transform="translate(167.17008,-25.908491)">
    <g
       transform="translate(208.03394,-58.016929)"
       id="g984">
      <g
         aria-label="gera"
         style="font-style:normal;font-weight:normal;font-size:46.66863632px;line-height:1.25;font-family:sans-serif;letter-spacing:0px;word-spacing:0px;fill:#34a853;fill-opacity:1;stroke:none;stroke-width:1.16671586"
         id="text817">
        <path
           d="m -351.41395,109.78699 q 0,6.49442 -2.73449,9.32006 -2.82564,2.894 -9.38842,2.894 -1.91414,0 -5.21832,-0.61526 -4.21567,-0.77477 -4.21567,-1.82299 0,-0.43296 0.97986,-4.46634 0.15951,-0.63804 0.50132,-0.63804 0.11394,0.0228 0.25067,0.0911 3.50926,1.73185 6.49441,1.73185 1.64069,0 3.2586,-0.82035 1.95972,-0.97986 1.95972,-2.46104 v -1.52676 q -2.32432,2.1876 -5.9703,2.1876 -4.28404,0 -7.04132,-3.07631 -2.66613,-2.96236 -2.66613,-7.29197 0,-4.352398 2.5522,-7.223613 2.66612,-2.985152 6.97295,-2.985152 3.4409,0 5.26389,2.461042 0.3646,0.501323 0.50132,0.501323 0.20509,0 0.20509,-0.820347 0,-1.822994 0.41017,-1.822994 0.3646,0 3.94223,0.387386 3.57762,0.364599 3.71435,0.410174 0.38738,0.136724 0.38738,0.592473 0,1.572332 -0.11393,4.694208 -0.0911,3.12188 -0.0911,4.69421 0,0.93428 0.0228,2.80285 0.0228,1.86857 0.0228,2.80285 z m -7.88445,-6.31211 q 0,-1.66348 -1.11658,-2.87122 -1.0938,-1.230517 -2.75728,-1.230517 -1.66348,0 -2.78006,1.253307 -1.0938,1.23052 -1.0938,2.894 0,1.66349 1.11658,2.87122 1.13938,1.20773 2.75728,1.20773 1.66348,0 2.75728,-1.23052 1.11658,-1.23052 1.11658,-2.894 z"
           style="font-style:normal;font-variant:normal;font-weight:normal;font-stretch:normal;font-family:'Berlin Sans FB Demi';-inkscape-font-specification:'Berlin Sans FB Demi';fill:#34a853;fill-opacity:1;stroke-width:1.16671586"
           id="path1579"
           inkscape:connector-curvature="0" />
        <path
           d="m -326.62123,103.33815 q 0,2.30153 -1.48119,2.62056 -0.25066,0.0456 -4.71699,0.50132 -2.68892,0.29624 -8.02117,0.70641 0.31902,1.48118 1.93693,2.25596 1.32167,0.63804 3.00794,0.63804 2.02808,0 4.07894,-1.09379 0.86593,-0.5469 1.73185,-1.0938 0.47853,0.22788 1.59512,2.32432 1.13937,2.09644 1.13937,2.66613 0,0.15951 -0.34181,0.52411 -2.78007,2.98515 -8.63644,2.98515 -5.4234,0 -8.75037,-3.16745 -3.41811,-3.21303 -3.41811,-8.59086 0,-5.241107 3.05352,-8.590858 3.14466,-3.463687 8.34019,-3.463687 4.37519,0 7.4287,3.190238 3.05352,3.190239 3.05352,7.588207 z m -7.9756,-1.39003 q 0,-1.41282 -1.00265,-2.483827 -1.00264,-1.071009 -2.39268,-1.071009 -1.4356,0 -2.36989,1.207733 -0.86592,1.116583 -0.86592,2.620553 0,0.61526 0.63805,0.61526 1.68627,0 5.2411,-0.52411 0.75199,-0.11394 0.75199,-0.3646 z"
           style="font-style:normal;font-variant:normal;font-weight:normal;font-stretch:normal;font-family:'Berlin Sans FB Demi';-inkscape-font-specification:'Berlin Sans FB Demi';fill:#34a853;fill-opacity:1;stroke-width:1.16671586"
           id="path1581"
           inkscape:connector-curvature="0" />
        <path
           d="m -308.96098,101.51516 q 0,0.88871 -0.97986,0.88871 -0.43296,0 -1.2761,-0.0456 -0.82035,-0.0684 -1.23052,-0.0684 -1.89135,0 -2.57498,0.59248 -0.68362,0.59247 -0.68362,2.39267 0,0.97986 0.0228,2.98516 0.0456,1.9825 0.0456,2.96236 0,0.66084 0.0911,1.98251 0.0912,1.29888 0.0912,1.93693 0,0.5469 -0.75198,0.61526 -1.0938,0.0911 -3.34975,0.0911 -2.16481,0 -3.46369,-0.13673 -0.75199,-0.0911 -0.75199,-0.75198 0,-1.823 0.0228,-5.44619 0.0228,-3.64599 0.0228,-5.46899 0,-5.355039 -0.97986,-8.818727 -0.0456,-0.205087 -0.0456,-0.341812 0,-0.341811 0.34182,-0.455748 1.2533,-0.136725 3.66877,-0.501323 3.60041,-0.70641 3.71435,-0.70641 0.41017,0 0.52411,1.435607 0.11394,1.435608 0.41017,1.435608 -0.31902,0 1.86857,-1.184946 2.18759,-1.207733 4.21568,-1.207733 1.27609,0 1.27609,0.546898 0,0.660835 -0.13672,1.868568 -0.13673,1.298883 -0.15952,1.868569 0,0.660835 0.0228,1.754631 0.0456,1.344458 0.0456,1.777418 z"
           style="font-style:normal;font-variant:normal;font-weight:normal;font-stretch:normal;font-family:'Berlin Sans FB Demi';-inkscape-font-specification:'Berlin Sans FB Demi';fill:#34a853;fill-opacity:1;stroke-width:1.16671586"
           id="path1583"
           inkscape:connector-curvature="0" />
        <path
           d="m -283.3935,104.31801 q 0,1.75463 0.20509,5.21832 0.20508,3.46369 0.20508,5.19553 0,0.9115 -0.79756,0.97986 -2.82564,0.20509 -6.47162,0.20509 -0.43297,0 -0.59248,-1.29888 -0.13672,-1.32167 -0.34181,-1.34446 -0.1823,0.0911 -0.47853,0.38739 -2.5522,2.57497 -5.46899,2.57497 -4.44354,0 -7.36033,-3.50926 -2.75728,-3.28139 -2.75728,-7.83887 0,-5.263895 2.84843,-8.476921 2.96236,-3.326964 8.11232,-3.326964 3.57762,0 5.65128,2.506616 0.0912,0.113937 0.15951,0.113937 0.20509,0 0.45575,-1.093796 0.27345,-1.116583 0.63805,-1.116583 0.84313,0 3.21302,0.478536 2.25596,0.455748 3.23582,0.774772 0.34181,0.136724 0.34181,0.364599 0,0.09115 -0.0684,0.478535 -0.7292,4.124523 -0.7292,8.727579 z m -7.33755,0.13673 q 0,-1.93693 -1.23052,-3.19024 -1.20773,-1.276097 -3.16745,-1.276097 -1.95972,0 -3.16745,1.253307 -1.20774,1.25331 -1.20774,3.21303 0,1.84578 1.2761,3.16745 1.27609,1.32167 3.09909,1.32167 1.93693,0 3.16745,-1.25331 1.23052,-1.27609 1.23052,-3.23581 z"
           style="font-style:normal;font-variant:normal;font-weight:normal;font-stretch:normal;font-family:'Berlin Sans FB Demi';-inkscape-font-specification:'Berlin Sans FB Demi';fill:#34a853;fill-opacity:1;stroke-width:1.16671586"
           id="path1585"
           inkscape:connector-curvature="0" />
      </g>
      <g
         aria-label="sena"
         style="font-style:normal;font-weight:normal;font-size:46.66863632px;line-height:1.25;font-family:sans-serif;letter-spacing:0px;word-spacing:0px;fill:#34a853;fill-opacity:1;stroke:none;stroke-width:1.16671586"
         id="text825">
        <path
           d="m -212.93026,98.78861 q 0,0.227874 -0.34181,0.61526 -0.63805,-0.159512 -1.2761,-0.159512 -1.34445,0 -2.25595,0.592473 -1.0938,0.683619 -1.0938,1.936929 0,0.79756 1.16216,2.02808 1.75463,1.84578 2.16481,2.48383 1.16216,1.73185 1.16216,3.71435 0,1.16216 -0.45575,2.46104 -0.52411,1.43561 -1.32167,2.09644 -1.68627,1.4584 -3.94223,2.46105 -2.43825,1.04822 -4.48912,1.04822 -0.45575,0 -2.05087,-2.46104 -1.57233,-2.48383 -1.57233,-3.03073 0,-0.20509 0.25066,-0.25066 1.59512,-0.29624 3.21303,-0.59248 2.00529,-0.63804 2.00529,-2.09644 0,-1.00264 -1.16216,-2.32431 -2.07365,-2.30153 -2.1648,-2.43826 -1.16216,-1.64069 -1.16216,-3.46369 0,-3.41811 3.46369,-5.810789 3.09909,-2.11923 6.63114,-2.11923 0.3646,0 1.8002,2.461041 1.43561,2.438254 1.43561,2.848428 z"
           style="font-style:normal;font-variant:normal;font-weight:normal;font-stretch:normal;font-family:'Berlin Sans FB Demi';-inkscape-font-specification:'Berlin Sans FB Demi';fill:#34a853;fill-opacity:1;stroke-width:1.16671586"
           id="path1588"
           inkscape:connector-curvature="0" />
        <path
           d="m -188.79838,104.85006 q 0,2.30153 -1.48118,2.62056 -0.25067,0.0456 -4.717,0.50132 -2.68892,0.29624 -8.02117,0.70641 0.31902,1.48118 1.93693,2.25595 1.32167,0.63805 3.00794,0.63805 2.02808,0 4.07895,-1.09379 0.86592,-0.5469 1.73184,-1.0938 0.47854,0.22787 1.59512,2.32432 1.13937,2.09644 1.13937,2.66613 0,0.15951 -0.34181,0.52411 -2.78007,2.98515 -8.63643,2.98515 -5.42341,0 -8.75037,-3.16745 -3.41811,-3.21303 -3.41811,-8.59086 0,-5.24111 3.05351,-8.590858 3.14466,-3.463688 8.3402,-3.463688 4.37518,0 7.42869,3.190239 3.05352,3.190237 3.05352,7.588207 z m -7.9756,-1.39003 q 0,-1.41282 -1.00265,-2.48383 -1.00264,-1.071006 -2.39267,-1.071006 -1.43561,0 -2.3699,1.207736 -0.86592,1.11658 -0.86592,2.62055 0,0.61526 0.63805,0.61526 1.68627,0 5.24111,-0.52411 0.75198,-0.11394 0.75198,-0.3646 z"
           style="font-style:normal;font-variant:normal;font-weight:normal;font-stretch:normal;font-family:'Berlin Sans FB Demi';-inkscape-font-specification:'Berlin Sans FB Demi';fill:#34a853;fill-opacity:1;stroke-width:1.16671586"
           id="path1590"
           inkscape:connector-curvature="0" />
        <path
           d="m -163.59549,116.5628 q 0,0.61526 -0.63805,0.70641 -0.63805,0.0911 -3.32697,0.0911 -2.87121,0 -3.55483,-0.13673 -0.68363,-0.13672 -0.68363,-0.93428 0,-1.07101 0.0684,-3.23582 0.0684,-2.1648 0.0684,-3.2586 0,-0.84313 -0.0456,-2.50661 -0.0456,-1.68627 -0.0456,-2.52941 0,-3.12187 -2.7117,-3.12187 -0.88871,0 -2.07366,0.77477 -1.27609,0.86592 -1.27609,1.70906 v 12.3052 q 0,0.75199 -0.70641,0.84314 -0.79756,0.0911 -3.25861,0.0911 -2.66612,0 -3.46368,-0.13673 -0.70641,-0.11393 -0.70641,-0.75198 0,-1.77742 0.0228,-5.35505 0.0228,-3.57762 0.0228,-5.37783 0,-5.67406 -0.88871,-8.909878 -0.0456,-0.205087 -0.0456,-0.341811 0,-0.364599 0.34181,-0.501324 1.43561,-0.159512 3.82828,-0.501323 3.6232,-0.70641 4.07895,-0.70641 0.25066,0 0.38739,1.549545 0.13672,1.526757 0.38739,1.526757 -0.25067,0 2.43825,-1.572332 2.7117,-1.59512 4.73978,-1.59512 2.89401,0 4.83094,1.367246 2.1648,1.572332 2.1648,4.37518 v 7.26919 q 0,1.48118 0.0228,4.44355 0.0228,2.93958 0.0228,4.42076 z"
           style="font-style:normal;font-variant:normal;font-weight:normal;font-stretch:normal;font-family:'Berlin Sans FB Demi';-inkscape-font-specification:'Berlin Sans FB Demi';fill:#34a853;fill-opacity:1;stroke-width:1.16671586"
           id="path1592"
           inkscape:connector-curvature="0" />
        <path
           d="m -136.91142,105.82992 q 0,1.75463 0.20508,5.21832 0.20509,3.46369 0.20509,5.19553 0,0.9115 -0.79756,0.97986 -2.82564,0.20509 -6.47163,0.20509 -0.43296,0 -0.59247,-1.29888 -0.13672,-1.32167 -0.34181,-1.34446 -0.1823,0.0911 -0.47854,0.38739 -2.55219,2.57497 -5.46898,2.57497 -4.44354,0 -7.36033,-3.50926 -2.75728,-3.28139 -2.75728,-7.83887 0,-5.2639 2.84843,-8.476922 2.96236,-3.326963 8.11232,-3.326963 3.57762,0 5.65128,2.506616 0.0911,0.113937 0.15951,0.113937 0.20509,0 0.45575,-1.093796 0.27345,-1.116584 0.63805,-1.116584 0.84313,0 3.21302,0.478536 2.25596,0.455748 3.23582,0.774772 0.34181,0.136725 0.34181,0.364599 0,0.09115 -0.0684,0.478536 -0.7292,4.124519 -0.7292,8.727579 z m -7.33755,0.13673 q 0,-1.93693 -1.23052,-3.19024 -1.20774,-1.2761 -3.16745,-1.2761 -1.95972,0 -3.16745,1.25331 -1.20774,1.25331 -1.20774,3.21303 0,1.84578 1.2761,3.16745 1.27609,1.32167 3.09909,1.32167 1.93693,0 3.16745,-1.25331 1.23052,-1.27609 1.23052,-3.23581 z"
           style="font-style:normal;font-variant:normal;font-weight:normal;font-stretch:normal;font-family:'Berlin Sans FB Demi';-inkscape-font-specification:'Berlin Sans FB Demi';fill:#34a853;fill-opacity:1;stroke-width:1.16671586"
           id="path1594"
           inkscape:connector-curvature="0" />
      </g>
      <g
         id="g963"
         transform="matrix(-0.41277808,1.5405088,-1.5405088,-0.41277808,-196.77889,540.99838)">
        <path
           inkscape:transform-center-y="-7.0158796"
           inkscape:transform-center-x="6.7913364e-005"
           inkscape:connector-curvature="0"
           id="path926"
           transform="scale(0.26458333)"
           d="m -974.28125,349.70117 c -0.32182,0.0116 -0.65314,0.0349 -1.00195,0.0684 -4.44624,0.42723 -8.82296,3.29411 -10.72852,7.0293 -1.60864,3.15319 -1.93447,8.78286 -0.70117,12.09375 0.66153,1.77609 24.24381,26.25976 25.29297,26.25976 0.21883,0 5.81255,-5.44964 12.43164,-12.11132 6.61905,-6.66171 12.38351,-13.02882 12.80859,-14.14844 1.24812,-3.28741 0.92757,-8.92797 -0.6875,-12.09375 -1.90552,-3.73519 -6.28228,-6.60207 -10.72851,-7.0293 -2.7905,-0.26812 -4.49423,0.11387 -8.65821,1.94141 l -5.18554,2.27539 -5.18555,-2.27539 c -3.64342,-1.59911 -5.4035,-2.09121 -7.65625,-2.00977 z"
           style="fill:#4285f4;fill-opacity:1;stroke:none;stroke-width:0.99999994px;stroke-linecap:butt;stroke-linejoin:miter;stroke-opacity:1" />
        <path
           style="fill:#b380ff;fill-opacity:1;stroke:none;stroke-width:0.26458332px;stroke-linecap:butt;stroke-linejoin:miter;stroke-opacity:1"
           d="m -241.35328,102.15491 c -0.003,-0.0851 -0.009,-0.17281 -0.0181,-0.2651 -0.11303,-1.1764 -0.87156,-2.334406 -1.85983,-2.838585 -0.83428,-0.425619 -2.3238,-0.511829 -3.19981,-0.185518 -0.46992,0.17503 -6.94789,6.414513 -6.94789,6.692103 0,0.0579 1.44188,1.5379 3.20445,3.2892 1.76258,1.75129 3.44721,3.27647 3.74344,3.38894 0.8698,0.33023 2.3622,0.24542 3.19981,-0.1819 0.98827,-0.50417 1.7468,-1.66219 1.85983,-2.83859 0.0709,-0.73832 -0.0301,-1.18909 -0.51366,-2.29081 l -0.60203,-1.37201 0.60203,-1.37201 c 0.4231,-0.96399 0.5533,-1.42968 0.53175,-2.02572 z"
           id="path953"
           inkscape:connector-curvature="0"
           inkscape:transform-center-x="-7.0158717"
           inkscape:transform-center-y="-6.7920063e-005" />
        <path
           inkscape:transform-center-y="7.0158724"
           inkscape:transform-center-x="-6.8202282e-005"
           inkscape:connector-curvature="0"
           id="path955"
           d="m -250.98309,118.58021 c 0.0851,-0.003 0.17281,-0.009 0.2651,-0.0181 1.1764,-0.11303 2.33441,-0.87156 2.83859,-1.85983 0.42562,-0.83428 0.51183,-2.3238 0.18551,-3.19981 -0.17503,-0.46992 -6.41451,-6.94789 -6.6921,-6.94789 -0.0579,0 -1.5379,1.44188 -3.2892,3.20445 -1.75129,1.76258 -3.27647,3.44721 -3.38894,3.74344 -0.33023,0.8698 -0.24542,2.3622 0.1819,3.19981 0.50417,0.98827 1.66219,1.7468 2.83859,1.85983 0.73832,0.0709 1.18909,-0.0301 2.29081,-0.51366 l 1.37201,-0.60203 1.37201,0.60203 c 0.96399,0.4231 1.42968,0.5533 2.02572,0.53175 z"
           style="fill:#fbbc05;fill-opacity:1;stroke:none;stroke-width:0.26458332px;stroke-linecap:butt;stroke-linejoin:miter;stroke-opacity:1" />
        <path
           style="fill:#ea4335;fill-opacity:1;stroke:none;stroke-width:0.26458332px;stroke-linecap:butt;stroke-linejoin:miter;stroke-opacity:1"
           d="m -267.40839,108.9504 c 0.003,0.0851 0.009,0.17281 0.0181,0.2651 0.11303,1.1764 0.87156,2.33441 1.85983,2.83859 0.83428,0.42562 2.3238,0.51183 3.19981,0.18551 0.46992,-0.17503 6.94789,-6.41451 6.94789,-6.6921 0,-0.0579 -1.44188,-1.5379 -3.20445,-3.2892 -1.76258,-1.75129 -3.44721,-3.276471 -3.74344,-3.388941 -0.8698,-0.33023 -2.3622,-0.24542 -3.19981,0.1819 -0.98827,0.50417 -1.7468,1.662191 -1.85983,2.838591 -0.0709,0.73832 0.0301,1.18909 0.51366,2.29081 l 0.60203,1.37201 -0.60203,1.37201 c -0.4231,0.96399 -0.5533,1.42968 -0.53175,2.02572 z"
           id="path957"
           inkscape:connector-curvature="0"
           inkscape:transform-center-x="7.0158742"
           inkscape:transform-center-y="6.8402282e-005" />
      </g>
    </g>
  </g>
</svg>
